<?xml version="1.0" standalone="no"?>
<!DOCTYPE svg PUBLIC "-//W3C//DTD SVG 20010904//EN"
 "http://www.w3.org/TR/2001/REC-SVG-20010904/DTD/svg10.dtd">
<svg version="1.0" xmlns="http://www.w3.org/2000/svg"
 width="466.000000pt" height="466.000000pt" viewBox="0 0 466.000000 466.000000"
 preserveAspectRatio="xMidYMid meet">
<metadata>
Created by potrace 1.11, written by Peter Selinger 2001-2013
</metadata>
<g transform="translate(0.000000,466.000000) scale(0.100000,-0.100000)"
fill="#000000" stroke="none">
<path d="M2205 4046 c-16 -6 -41 -18 -55 -25 -20 -12 -409 -298 -446 -330 -33
-27 -464 -351 -467 -351 -3 0 -19 -13 -37 -30 -18 -16 -38 -30 -46 -30 -8 0
-14 -3 -14 -8 0 -7 -135 -112 -144 -112 -3 0 -20 -13 -38 -30 -18 -16 -37 -30
-42 -30 -5 0 -14 -6 -20 -14 -11 -14 -292 -226 -300 -226 -2 0 -18 -13 -36
-30 -18 -16 -36 -30 -40 -30 -4 0 -23 -15 -43 -32 -19 -18 -54 -44 -76 -58
-22 -14 -41 -31 -41 -39 0 -8 -3 -12 -6 -8 -5 4 -229 -159 -299 -218 -46 -39
-56 -142 -20 -218 17 -35 62 -77 88 -81 7 -1 17 -4 22 -8 15 -9 86 -3 117 10
15 6 53 35 85 64 32 30 254 200 493 380 747 560 865 649 868 659 2 5 8 9 13 9
14 0 159 112 159 123 0 6 3 8 6 4 5 -5 314 220 339 247 15 17 88 52 105 50 29
-2 55 -19 199 -128 80 -61 295 -222 476 -358 182 -136 335 -251 340 -256 17
-13 317 -236 370 -274 28 -20 59 -46 69 -57 10 -11 23 -18 27 -15 5 3 9 1 9
-3 0 -12 102 -89 112 -85 4 1 8 -2 8 -7 0 -7 136 -112 149 -115 2 -1 20 -16
39 -33 20 -18 42 -33 49 -33 7 0 13 -4 13 -8 0 -9 76 -67 95 -73 6 -2 23 -17
39 -34 42 -43 88 -75 97 -69 5 3 9 1 9 -4 0 -18 105 -4 143 18 31 19 57 48 62
70 1 3 7 17 12 31 11 25 10 61 0 104 -3 11 -6 25 -6 32 -1 17 -67 81 -141 138
-36 27 -67 52 -70 55 -3 3 -23 18 -45 34 -22 16 -47 36 -55 43 -8 7 -80 63
-160 124 -80 61 -150 118 -157 126 -6 8 -13 13 -15 11 -1 -1 -37 22 -78 53
-95 70 -438 317 -539 389 -43 30 -95 69 -117 87 -118 97 -764 578 -794 591
-42 19 -220 24 -265 8z"/>
<path d="M3385 3881 c-28 -17 -80 -81 -84 -105 -1 -6 -4 -43 -7 -82 l-6 -71
39 -30 c42 -33 567 -412 606 -438 l24 -15 0 317 c0 194 -4 323 -10 331 -5 6
-7 12 -3 12 16 0 -31 54 -65 76 -36 23 -43 23 -251 23 -183 -1 -217 -3 -243
-18z"/>
<path d="M2288 3414 c-2 -2 -13 -5 -24 -7 -58 -10 -98 -38 -814 -587 -36 -27
-215 -164 -399 -304 -184 -140 -342 -267 -351 -281 -16 -24 -17 -87 -17 -838
0 -577 4 -826 12 -862 29 -127 114 -234 231 -290 l71 -35 409 0 410 0 -1 533
c0 597 1 603 71 686 35 40 124 109 124 95 0 -3 7 0 17 7 9 8 18 13 20 12 1 -2
4 -3 6 -2 22 9 426 14 462 5 66 -14 85 -22 132 -53 44 -29 116 -116 118 -142
1 -3 5 -17 9 -31 14 -38 13 -33 15 -588 l1 -523 438 3 438 3 68 34 c88 45 163
126 202 217 l29 69 2 830 c2 712 0 834 -12 862 -9 18 -46 54 -88 84 -39 30
-76 57 -82 62 -397 305 -607 466 -745 570 -41 31 -80 61 -87 66 -11 10 -120
93 -383 293 -63 48 -116 85 -119 83 -2 -3 -10 0 -17 5 -18 15 -136 35 -146 24z"/>
</g>
</svg>
